<svg id="Ebene_1" data-name="Ebene 1" xmlns="http://www.w3.org/2000/svg" viewBox="0 0 600 600"><defs><style>.cls-1{fill:#f26522;}.cls-2{fill:#fff;}</style></defs><title>icon</title><circle class="cls-1" cx="300" cy="297.8" r="240"/><path class="cls-2" d="M176.19,235.76V375a23.23,23.23,0,0,0,23.22,23.22H400.59A23.23,23.23,0,0,0,423.81,375V235.76a23.22,23.22,0,0,0-23.22-23.21H199.41A23.22,23.22,0,0,0,176.19,235.76Zm23.22,136.38V238.66a2.9,2.9,0,0,1,2.9-2.9H397.69a2.9,2.9,0,0,1,2.9,2.9V372.14a2.9,2.9,0,0,1-2.9,2.9H202.31A2.9,2.9,0,0,1,199.41,372.14Zm143.15-97.69a19.35,19.35,0,1,0,19.34-19.34A19.35,19.35,0,0,0,342.56,274.45Zm34.82,54.17-19.11-19.11a5.8,5.8,0,0,0-8.21,0L331,328.62l-57.8-57.8a5.8,5.8,0,0,0-8.21,0l-42.32,42.32v38.69H377.38Z"/><rect class="cls-1" x="338.92" y="156.5" width="130.77" height="137.29"/><path class="cls-2" d="M372.69,282.33a18.64,18.64,0,1,1-18.64-18.65,18.65,18.65,0,0,1,18.64,18.65Zm51.14,13.75a88.51,88.51,0,0,0-83.54-83.53,4.64,4.64,0,0,0-4.88,4.65v14a4.65,4.65,0,0,0,4.33,4.66,65.23,65.23,0,0,1,60.78,60.78,4.65,4.65,0,0,0,4.66,4.33h14a4.66,4.66,0,0,0,4.66-4.89Zm42,.09A130.51,130.51,0,0,0,340.21,170.55a4.65,4.65,0,0,0-4.8,4.66v14a4.66,4.66,0,0,0,4.49,4.65A107.16,107.16,0,0,1,442.51,296.47a4.67,4.67,0,0,0,4.66,4.5h14A4.65,4.65,0,0,0,465.82,296.17Z"/></svg>